<?xml version="1.0" encoding="UTF-8"?>
<svg width="502px" height="150px" viewBox="0 0 502 150" version="1.1" xmlns="http://www.w3.org/2000/svg" xmlns:xlink="http://www.w3.org/1999/xlink">
    <title>Group 3</title>
    <defs>
        <radialGradient cx="2.3433057%" cy="0.861786714%" fx="2.3433057%" fy="0.861786714%" r="604.664419%" gradientTransform="translate(0.023433,0.008618),scale(0.163721,1.000000),rotate(9.436578),translate(-0.023433,-0.008618)" id="radialGradient-1">
            <stop stop-color="#FFB14D" offset="0%"></stop>
            <stop stop-color="#FF4F6E" offset="100%"></stop>
        </radialGradient>
        <path d="M18.8261719,50.1367188 C30.5136719,50.1367188 37.5527344,44.4589844 37.5527344,35.5273438 L37.5527344,35.4941406 C37.5527344,28.0234375 33.203125,23.9726562 23.2421875,21.9140625 L18.0625,20.8515625 C12.2851562,19.65625 9.66210938,17.6640625 9.66210938,14.2773438 L9.66210938,14.2441406 C9.66210938,10.4257812 13.1484375,7.80273438 18.7597656,7.76953125 C24.1386719,7.76953125 27.8242188,10.2597656 28.3886719,14.4433594 L28.4550781,14.8417969 L36.65625,14.8417969 L36.6230469,14.2773438 C36.125,6.07617188 29.2851562,0.564453125 18.8261719,0.564453125 C8.5,0.564453125 1.09570312,6.27539062 1.0625,14.7089844 L1.0625,14.7421875 C1.0625,21.8808594 5.7109375,26.2636719 15.140625,28.2226562 L20.2871094,29.2851562 C26.4628906,30.5800781 28.953125,32.5058594 28.953125,36.0917969 L28.953125,36.125 C28.953125,40.2421875 25.1679688,42.9316406 19.125,42.9316406 C13.1152344,42.9316406 8.8984375,40.375 8.26757812,36.2578125 L8.20117188,35.859375 L0,35.859375 L0.033203125,36.3574219 C0.59765625,44.9570312 7.8359375,50.1367188 18.8261719,50.1367188 Z M43.9609375,49.3066406 L74.2753906,49.3066406 L74.2753906,42.1015625 L52.5273438,42.1015625 L52.5273438,1.39453125 L43.9609375,1.39453125 L43.9609375,49.3066406 Z M77.0976562,49.3066406 L86.0625,49.3066406 L90.1132812,36.921875 L107.943359,36.921875 L111.994141,49.3066406 L120.992188,49.3066406 L103.859375,1.39453125 L94.2304688,1.39453125 L77.0976562,49.3066406 Z M98.9453125,9.92773438 L99.1445312,9.92773438 L105.785156,30.3144531 L92.2714844,30.3144531 L98.9453125,9.92773438 Z M151.40625,49.3066406 L159.939453,49.3066406 L159.939453,8.59960938 L174.25,8.59960938 L174.25,1.39453125 L137.0625,1.39453125 L137.0625,8.59960938 L151.40625,8.59960938 L151.40625,49.3066406 Z M182.085938,9.06445312 C184.675781,9.06445312 186.667969,7.00585938 186.667969,4.54882812 C186.667969,2.02539062 184.675781,0 182.085938,0 C179.496094,0 177.470703,2.02539062 177.470703,4.54882812 C177.470703,7.00585938 179.496094,9.06445312 182.085938,9.06445312 Z M177.935547,49.3066406 L186.203125,49.3066406 L186.203125,14.1113281 L177.935547,14.1113281 L177.935547,49.3066406 Z M193.208984,49.3066406 L201.476562,49.3066406 L201.476562,27.7578125 C201.476562,23.4746094 204.265625,20.3535156 208.25,20.3535156 C212.101562,20.3535156 214.492188,22.8105469 214.492188,26.7617188 L214.492188,49.3066406 L222.527344,49.3066406 L222.527344,27.5585938 C222.527344,23.3085938 225.25,20.3535156 229.234375,20.3535156 C233.285156,20.3535156 235.542969,22.84375 235.542969,27.1933594 L235.542969,49.3066406 L243.810547,49.3066406 L243.810547,25.1347656 C243.810547,18.0957031 239.261719,13.3808594 232.322266,13.3808594 C227.242188,13.3808594 223.058594,16.1035156 221.365234,20.4863281 L221.166016,20.4863281 C219.871094,15.9707031 216.318359,13.3808594 211.404297,13.3808594 C206.755859,13.3808594 203.136719,15.9042969 201.642578,19.7558594 L201.476562,19.7558594 L201.476562,14.1113281 L193.208984,14.1113281 L193.208984,49.3066406 Z M265.890625,50.0039062 C275.087891,50.0039062 280.267578,44.5585938 281.363281,39.1464844 L281.462891,38.78125 L273.726562,38.78125 L273.660156,39.0136719 C272.863281,41.3710938 270.173828,43.5625 266.056641,43.5625 C260.677734,43.5625 257.291016,39.9101562 257.158203,33.734375 L281.794922,33.734375 L281.794922,31.078125 C281.794922,20.453125 275.552734,13.3808594 265.492188,13.3808594 C255.431641,13.3808594 248.957031,20.6855469 248.957031,31.7753906 L248.957031,31.8085938 C248.957031,42.9980469 255.332031,50.0039062 265.890625,50.0039062 Z M265.591797,19.8554688 C269.974609,19.8554688 273.162109,22.6445312 273.759766,28.2226562 L257.257812,28.2226562 C257.921875,22.8105469 261.208984,19.8554688 265.591797,19.8554688 Z M287.107422,49.3066406 L295.375,49.3066406 L295.375,28.6875 C295.375,23.7402344 298.197266,20.71875 302.878906,20.71875 C304.273438,20.71875 305.535156,20.9179688 306.232422,21.1835938 L306.232422,13.7128906 C305.601562,13.546875 304.638672,13.3808594 303.609375,13.3808594 C299.458984,13.3808594 296.371094,15.8710938 295.308594,19.9882812 L295.142578,19.9882812 L295.142578,14.1113281 L287.107422,14.1113281 L287.107422,49.3066406 Z" id="path-2"></path>
        <radialGradient cx="23.2287401%" cy="18.920732%" fx="23.2287401%" fy="18.920732%" r="109.325974%" id="radialGradient-3">
            <stop stop-color="#FFFFFF" offset="0%"></stop>
            <stop stop-color="#EEE6E7" offset="100%"></stop>
        </radialGradient>
        <radialGradient cx="2.3433057%" cy="0.861786714%" fx="2.3433057%" fy="0.861786714%" r="139.158957%" id="radialGradient-4">
            <stop stop-color="#FFB14D" offset="0%"></stop>
            <stop stop-color="#FF4F6E" offset="100%"></stop>
        </radialGradient>
    </defs>
    <g id="Page-1" stroke="none" stroke-width="1" fill="none" fill-rule="evenodd">
        <g id="Logo-Dark" transform="translate(-51.000000, -130.000000)">
            <g id="Group-3" transform="translate(51.000000, 130.000000)">
                <g id="SLA-Timer" transform="translate(195.224609, 50.693359)" fill-rule="nonzero">
                    <g id="Combined-Shape">
                        <use fill="#68637B" xlink:href="#path-2"></use>
                        <use fill="url(#radialGradient-1)" xlink:href="#path-2"></use>
                    </g>
                </g>
                <g id="PHP-Package-for-Serv" transform="translate(194.302246, 112.772949)" fill="#68637B" fill-rule="nonzero">
                    <path d="M0,15.2270508 L2.64550781,15.2270508 L2.64550781,10.3359375 L5.70117188,10.3359375 C8.6953125,10.3359375 10.7358398,8.34667969 10.7358398,5.39355469 L10.7358398,5.37304688 C10.7358398,2.40966797 8.6953125,0.430664062 5.70117188,0.430664062 L0,0.430664062 L0,15.2270508 Z M5.04492188,2.59423828 C6.94189453,2.59423828 8.04931641,3.609375 8.04931641,5.38330078 L8.04931641,5.40380859 C8.04931641,7.17773438 6.94189453,8.203125 5.04492188,8.203125 L2.64550781,8.203125 L2.64550781,2.59423828 L5.04492188,2.59423828 Z" id="Shape"></path>
                    <polygon id="Path" points="12.6635742 15.2270508 15.309082 15.2270508 15.309082 8.80810547 22.5073242 8.80810547 22.5073242 15.2270508 25.1425781 15.2270508 25.1425781 0.430664062 22.5073242 0.430664062 22.5073242 6.58300781 15.309082 6.58300781 15.309082 0.430664062 12.6635742 0.430664062"></polygon>
                    <path d="M27.7470703,15.2270508 L30.3925781,15.2270508 L30.3925781,10.3359375 L33.4482422,10.3359375 C36.4423828,10.3359375 38.4829102,8.34667969 38.4829102,5.39355469 L38.4829102,5.37304688 C38.4829102,2.40966797 36.4423828,0.430664062 33.4482422,0.430664062 L27.7470703,0.430664062 L27.7470703,15.2270508 Z M32.7919922,2.59423828 C34.6889648,2.59423828 35.7963867,3.609375 35.7963867,5.38330078 L35.7963867,5.40380859 C35.7963867,7.17773438 34.6889648,8.203125 32.7919922,8.203125 L30.3925781,8.203125 L30.3925781,2.59423828 L32.7919922,2.59423828 Z" id="Shape"></path>
                    <path d="M44.6147461,15.2270508 L47.2602539,15.2270508 L47.2602539,10.3359375 L50.315918,10.3359375 C53.3100586,10.3359375 55.3505859,8.34667969 55.3505859,5.39355469 L55.3505859,5.37304688 C55.3505859,2.40966797 53.3100586,0.430664062 50.315918,0.430664062 L44.6147461,0.430664062 L44.6147461,15.2270508 Z M49.659668,2.59423828 C51.5566406,2.59423828 52.6640625,3.609375 52.6640625,5.38330078 L52.6640625,5.40380859 C52.6640625,7.17773438 51.5566406,8.203125 49.659668,8.203125 L47.2602539,8.203125 L47.2602539,2.59423828 L49.659668,2.59423828 Z" id="Shape"></path>
                    <path d="M59.4418945,15.4116211 C60.8774414,15.4116211 62.0874023,14.6938477 62.7128906,13.5556641 L62.7744141,13.5556641 L62.7744141,15.2270508 L65.3276367,15.2270508 L65.3276367,7.75195312 C65.3276367,5.56787109 63.5742188,4.13232422 60.8569336,4.13232422 C58.0986328,4.13232422 56.4272461,5.578125 56.2734375,7.50585938 L56.2631836,7.62890625 L58.6318359,7.62890625 L58.6523438,7.53662109 C58.8164062,6.73681641 59.5546875,6.17285156 60.7646484,6.17285156 C62.0566406,6.17285156 62.7744141,6.83935547 62.7744141,7.93652344 L62.7744141,8.68505859 L59.934082,8.859375 C57.2988281,9.0234375 55.8017578,10.1821289 55.8017578,12.1098633 L55.8017578,12.1303711 C55.8017578,14.0683594 57.2680664,15.4116211 59.4418945,15.4116211 Z M58.3447266,12.027832 L58.3447266,12.0175781 C58.3447266,11.15625 59.0317383,10.612793 60.2929688,10.5307617 L62.7744141,10.3769531 L62.7744141,11.1972656 C62.7744141,12.4892578 61.6669922,13.4633789 60.2006836,13.4633789 C59.0830078,13.4633789 58.3447266,12.9199219 58.3447266,12.027832 Z" id="Shape"></path>
                    <path d="M72.1772461,15.4423828 C74.925293,15.4423828 76.7607422,13.7197266 76.9555664,11.4536133 L76.9658203,11.3818359 L74.5561523,11.3818359 L74.5356445,11.4741211 C74.2998047,12.6123047 73.4794922,13.3813477 72.1875,13.3813477 C70.5776367,13.3813477 69.5317383,12.0688477 69.5317383,9.80273438 L69.5317383,9.79248047 C69.5317383,7.56738281 70.5673828,6.20361328 72.1772461,6.20361328 C73.5307617,6.20361328 74.3100586,7.0546875 74.5253906,8.11083984 L74.5458984,8.203125 L76.9555664,8.203125 L76.9453125,8.12109375 C76.7915039,5.94726562 75.0073242,4.13232422 72.1464844,4.13232422 C68.9780273,4.13232422 66.9272461,6.30615234 66.9272461,9.77197266 L66.9272461,9.78222656 C66.9272461,13.2685547 68.9472656,15.4423828 72.1772461,15.4423828 Z" id="Path"></path>
                    <polygon id="Path" points="78.5961914 15.2270508 81.1494141 15.2270508 81.1494141 11.4536133 82.0107422 10.5512695 85.4458008 15.2270508 88.3886719 15.2270508 83.9077148 9.03369141 88.2143555 4.35791016 85.2612305 4.35791016 81.2006836 8.86962891 81.1494141 8.86962891 81.1494141 0.430664062 78.5961914 0.430664062"></polygon>
                    <path d="M92.5517578,15.4116211 C93.9873047,15.4116211 95.1972656,14.6938477 95.8227539,13.5556641 L95.8842773,13.5556641 L95.8842773,15.2270508 L98.4375,15.2270508 L98.4375,7.75195312 C98.4375,5.56787109 96.684082,4.13232422 93.9667969,4.13232422 C91.2084961,4.13232422 89.5371094,5.578125 89.3833008,7.50585938 L89.3730469,7.62890625 L91.7416992,7.62890625 L91.762207,7.53662109 C91.9262695,6.73681641 92.6645508,6.17285156 93.8745117,6.17285156 C95.1665039,6.17285156 95.8842773,6.83935547 95.8842773,7.93652344 L95.8842773,8.68505859 L93.0439453,8.859375 C90.4086914,9.0234375 88.9116211,10.1821289 88.9116211,12.1098633 L88.9116211,12.1303711 C88.9116211,14.0683594 90.3779297,15.4116211 92.5517578,15.4116211 Z M91.4545898,12.027832 L91.4545898,12.0175781 C91.4545898,11.15625 92.1416016,10.612793 93.402832,10.5307617 L95.8842773,10.3769531 L95.8842773,11.1972656 C95.8842773,12.4892578 94.7768555,13.4633789 93.3105469,13.4633789 C92.1928711,13.4633789 91.4545898,12.9199219 91.4545898,12.027832 Z" id="Shape"></path>
                    <path d="M105.389648,19.03125 C108.537598,19.03125 110.516602,17.3803711 110.516602,14.9194336 L110.516602,4.35791016 L107.963379,4.35791016 L107.963379,6.20361328 L107.901855,6.20361328 C107.286621,4.95263672 106.097168,4.13232422 104.559082,4.13232422 C101.811035,4.13232422 100.037109,6.24462891 100.037109,9.6796875 L100.037109,9.68994141 C100.037109,13.0737305 101.790527,15.1655273 104.518066,15.1655273 C106.07666,15.1655273 107.307129,14.4272461 107.912109,13.2685547 L107.963379,13.2685547 L107.963379,14.8374023 C107.963379,16.2216797 107.050781,17.1035156 105.389648,17.1035156 C104.056641,17.1035156 103.185059,16.6318359 102.908203,16.0063477 L102.877441,15.9243164 L100.365234,15.9243164 L100.385742,16.0166016 C100.693359,17.71875 102.508301,19.03125 105.389648,19.03125 Z M105.317871,13.1967773 C103.677246,13.1967773 102.641602,11.8740234 102.641602,9.73095703 L102.641602,9.72070312 C102.641602,7.60839844 103.677246,6.28564453 105.317871,6.28564453 C106.896973,6.28564453 107.973633,7.62890625 107.973633,9.73095703 L107.973633,9.74121094 C107.973633,11.8535156 106.907227,13.1967773 105.317871,13.1967773 Z" id="Shape"></path>
                    <path d="M117.386719,15.4423828 C120.227051,15.4423828 121.82666,13.7607422 122.165039,12.0893555 L122.195801,11.9765625 L119.806641,11.9765625 L119.786133,12.0483398 C119.540039,12.7763672 118.709473,13.453125 117.437988,13.453125 C115.776855,13.453125 114.730957,12.3251953 114.689941,10.4179688 L122.29834,10.4179688 L122.29834,9.59765625 C122.29834,6.31640625 120.370605,4.13232422 117.263672,4.13232422 C114.156738,4.13232422 112.157227,6.38818359 112.157227,9.81298828 L112.157227,9.82324219 C112.157227,13.2788086 114.125977,15.4423828 117.386719,15.4423828 Z M117.294434,6.13183594 C118.647949,6.13183594 119.632324,6.99316406 119.816895,8.71582031 L114.720703,8.71582031 C114.925781,7.04443359 115.940918,6.13183594 117.294434,6.13183594 Z" id="Shape"></path>
                    <path d="M128.850586,15.2270508 L131.403809,15.2270508 L131.403809,6.32666016 L133.536621,6.32666016 L133.536621,4.35791016 L131.352539,4.35791016 L131.352539,3.39404297 C131.352539,2.51220703 131.813965,2.05078125 132.808594,2.05078125 C133.085449,2.05078125 133.372559,2.07128906 133.577637,2.10205078 L133.577637,0.317871094 C133.259766,0.256347656 132.716309,0.215332031 132.213867,0.215332031 C129.855469,0.215332031 128.850586,1.19970703 128.850586,3.32226562 L128.850586,4.35791016 L127.36377,4.35791016 L127.36377,6.32666016 L128.850586,6.32666016 L128.850586,15.2270508 Z" id="Path"></path>
                    <path d="M139.166016,15.4423828 C142.35498,15.4423828 144.42627,13.3198242 144.42627,9.79248047 L144.42627,9.77197266 C144.42627,6.26513672 142.324219,4.13232422 139.155762,4.13232422 C135.997559,4.13232422 133.905762,6.28564453 133.905762,9.77197266 L133.905762,9.79248047 C133.905762,13.3095703 135.966797,15.4423828 139.166016,15.4423828 Z M139.17627,13.3813477 C137.545898,13.3813477 136.510254,12.0791016 136.510254,9.79248047 L136.510254,9.77197266 C136.510254,7.51611328 137.566406,6.20361328 139.155762,6.20361328 C140.775879,6.20361328 141.821777,7.50585938 141.821777,9.77197266 L141.821777,9.79248047 C141.821777,12.0688477 140.786133,13.3813477 139.17627,13.3813477 Z" id="Shape"></path>
                    <path d="M146.066895,15.2270508 L148.620117,15.2270508 L148.620117,8.859375 C148.620117,7.33154297 149.491699,6.3984375 150.9375,6.3984375 C151.368164,6.3984375 151.757812,6.45996094 151.973145,6.54199219 L151.973145,4.23486328 C151.77832,4.18359375 151.480957,4.13232422 151.163086,4.13232422 C149.881348,4.13232422 148.927734,4.90136719 148.599609,6.17285156 L148.54834,6.17285156 L148.54834,4.35791016 L146.066895,4.35791016 L146.066895,15.2270508 Z" id="Path"></path>
                    <path d="M162.944824,15.4833984 C166.554199,15.4833984 168.728027,13.7299805 168.728027,10.9716797 L168.728027,10.9614258 C168.728027,8.65429688 167.384766,7.40332031 164.308594,6.76757812 L162.708984,6.43945312 C160.924805,6.0703125 160.114746,5.45507812 160.114746,4.40917969 L160.114746,4.39892578 C160.114746,3.21972656 161.191406,2.40966797 162.924316,2.39941406 C164.585449,2.39941406 165.723633,3.16845703 165.897949,4.46044922 L165.918457,4.58349609 L168.451172,4.58349609 L168.440918,4.40917969 C168.287109,1.87646484 166.174805,0.174316406 162.944824,0.174316406 C159.755859,0.174316406 157.469238,1.93798828 157.458984,4.54248047 L157.458984,4.55273438 C157.458984,6.75732422 158.894531,8.11083984 161.806641,8.71582031 L163.395996,9.04394531 C165.303223,9.44384766 166.072266,10.0385742 166.072266,11.1459961 L166.072266,11.15625 C166.072266,12.4277344 164.90332,13.2583008 163.037109,13.2583008 C161.181152,13.2583008 159.878906,12.46875 159.684082,11.1972656 L159.663574,11.0742188 L157.130859,11.0742188 L157.141113,11.2280273 C157.31543,13.8837891 159.550781,15.4833984 162.944824,15.4833984 Z" id="Path"></path>
                    <path d="M175.229004,15.4423828 C178.069336,15.4423828 179.668945,13.7607422 180.007324,12.0893555 L180.038086,11.9765625 L177.648926,11.9765625 L177.628418,12.0483398 C177.382324,12.7763672 176.551758,13.453125 175.280273,13.453125 C173.619141,13.453125 172.573242,12.3251953 172.532227,10.4179688 L180.140625,10.4179688 L180.140625,9.59765625 C180.140625,6.31640625 178.212891,4.13232422 175.105957,4.13232422 C171.999023,4.13232422 169.999512,6.38818359 169.999512,9.81298828 L169.999512,9.82324219 C169.999512,13.2788086 171.968262,15.4423828 175.229004,15.4423828 Z M175.136719,6.13183594 C176.490234,6.13183594 177.474609,6.99316406 177.65918,8.71582031 L172.562988,8.71582031 C172.768066,7.04443359 173.783203,6.13183594 175.136719,6.13183594 Z" id="Shape"></path>
                    <path d="M181.78125,15.2270508 L184.334473,15.2270508 L184.334473,8.859375 C184.334473,7.33154297 185.206055,6.3984375 186.651855,6.3984375 C187.08252,6.3984375 187.472168,6.45996094 187.6875,6.54199219 L187.6875,4.23486328 C187.492676,4.18359375 187.195312,4.13232422 186.877441,4.13232422 C185.595703,4.13232422 184.64209,4.90136719 184.313965,6.17285156 L184.262695,6.17285156 L184.262695,4.35791016 L181.78125,4.35791016 L181.78125,15.2270508 Z" id="Path"></path>
                    <polygon id="Path" points="191.932617 15.2270508 194.742188 15.2270508 198.566895 4.35791016 195.900879 4.35791016 193.388672 12.8583984 193.327148 12.8583984 190.804688 4.35791016 188.087402 4.35791016"></polygon>
                    <path d="M201.099609,2.79931641 C201.899414,2.79931641 202.514648,2.16357422 202.514648,1.40478516 C202.514648,0.625488281 201.899414,0 201.099609,0 C200.299805,0 199.674316,0.625488281 199.674316,1.40478516 C199.674316,2.16357422 200.299805,2.79931641 201.099609,2.79931641 Z M199.817871,15.2270508 L202.371094,15.2270508 L202.371094,4.35791016 L199.817871,4.35791016 L199.817871,15.2270508 Z" id="Shape"></path>
                    <path d="M209.333496,15.4423828 C212.081543,15.4423828 213.916992,13.7197266 214.111816,11.4536133 L214.12207,11.3818359 L211.712402,11.3818359 L211.691895,11.4741211 C211.456055,12.6123047 210.635742,13.3813477 209.34375,13.3813477 C207.733887,13.3813477 206.687988,12.0688477 206.687988,9.80273438 L206.687988,9.79248047 C206.687988,7.56738281 207.723633,6.20361328 209.333496,6.20361328 C210.687012,6.20361328 211.466309,7.0546875 211.681641,8.11083984 L211.702148,8.203125 L214.111816,8.203125 L214.101562,8.12109375 C213.947754,5.94726562 212.163574,4.13232422 209.302734,4.13232422 C206.134277,4.13232422 204.083496,6.30615234 204.083496,9.77197266 L204.083496,9.78222656 C204.083496,13.2685547 206.103516,15.4423828 209.333496,15.4423828 Z" id="Path"></path>
                    <path d="M220.417969,15.4423828 C223.258301,15.4423828 224.85791,13.7607422 225.196289,12.0893555 L225.227051,11.9765625 L222.837891,11.9765625 L222.817383,12.0483398 C222.571289,12.7763672 221.740723,13.453125 220.469238,13.453125 C218.808105,13.453125 217.762207,12.3251953 217.721191,10.4179688 L225.32959,10.4179688 L225.32959,9.59765625 C225.32959,6.31640625 223.401855,4.13232422 220.294922,4.13232422 C217.187988,4.13232422 215.188477,6.38818359 215.188477,9.81298828 L215.188477,9.82324219 C215.188477,13.2788086 217.157227,15.4423828 220.417969,15.4423828 Z M220.325684,6.13183594 C221.679199,6.13183594 222.663574,6.99316406 222.848145,8.71582031 L217.751953,8.71582031 C217.957031,7.04443359 218.972168,6.13183594 220.325684,6.13183594 Z" id="Shape"></path>
                    <path d="M231.430664,15.2270508 L236.834473,15.2270508 C241.26416,15.2270508 243.868652,12.4790039 243.868652,7.79296875 L243.868652,7.77246094 C243.868652,3.09667969 241.243652,0.430664062 236.834473,0.430664062 L231.430664,0.430664062 L231.430664,15.2270508 Z M234.076172,12.9916992 L234.076172,2.66601562 L236.557617,2.66601562 C239.500488,2.66601562 241.171875,4.48095703 241.171875,7.78271484 L241.171875,7.80322266 C241.171875,11.1767578 239.53125,12.9916992 236.557617,12.9916992 L234.076172,12.9916992 Z" id="Shape"></path>
                    <path d="M250.492676,15.4423828 C253.333008,15.4423828 254.932617,13.7607422 255.270996,12.0893555 L255.301758,11.9765625 L252.912598,11.9765625 L252.89209,12.0483398 C252.645996,12.7763672 251.81543,13.453125 250.543945,13.453125 C248.882812,13.453125 247.836914,12.3251953 247.795898,10.4179688 L255.404297,10.4179688 L255.404297,9.59765625 C255.404297,6.31640625 253.476562,4.13232422 250.369629,4.13232422 C247.262695,4.13232422 245.263184,6.38818359 245.263184,9.81298828 L245.263184,9.82324219 C245.263184,13.2788086 247.231934,15.4423828 250.492676,15.4423828 Z M250.400391,6.13183594 C251.753906,6.13183594 252.738281,6.99316406 252.922852,8.71582031 L247.82666,8.71582031 C248.031738,7.04443359 249.046875,6.13183594 250.400391,6.13183594 Z" id="Shape"></path>
                    <path d="M261.290039,15.4423828 C263.956055,15.4423828 265.853027,14.0683594 265.853027,12.0175781 L265.853027,12.0073242 C265.853027,10.4282227 264.981445,9.54638672 262.73584,9.04394531 L260.920898,8.64404297 C259.792969,8.38769531 259.372559,7.97753906 259.372559,7.35205078 L259.372559,7.34179688 C259.372559,6.54199219 260.080078,6.01904297 261.208008,6.01904297 C262.397461,6.01904297 263.094727,6.65478516 263.20752,7.52636719 L263.217773,7.60839844 L265.59668,7.60839844 L265.586426,7.49560547 C265.494141,5.61914062 263.915039,4.13232422 261.208008,4.13232422 C258.583008,4.13232422 256.850098,5.47558594 256.850098,7.46484375 L256.850098,7.47509766 C256.850098,9.08496094 257.895996,10.1000977 259.977539,10.5615234 L261.782227,10.9614258 C262.910156,11.2177734 263.289551,11.5869141 263.289551,12.2431641 L263.289551,12.253418 C263.289551,13.0532227 262.541016,13.5556641 261.300293,13.5556641 C260.008301,13.5556641 259.300781,13.0019531 259.105957,12.0688477 L259.085449,11.9765625 L256.573242,11.9765625 L256.583496,12.0688477 C256.809082,14.0888672 258.439453,15.4423828 261.290039,15.4423828 Z" id="Path"></path>
                    <polygon id="Path" points="267.585938 15.2270508 270.13916 15.2270508 270.13916 11.4536133 271.000488 10.5512695 274.435547 15.2270508 277.378418 15.2270508 272.897461 9.03369141 277.204102 4.35791016 274.250977 4.35791016 270.19043 8.86962891 270.13916 8.86962891 270.13916 0.430664062 267.585938 0.430664062"></polygon>
                    <path d="M282.331055,15.4423828 C284.99707,15.4423828 286.894043,14.0683594 286.894043,12.0175781 L286.894043,12.0073242 C286.894043,10.4282227 286.022461,9.54638672 283.776855,9.04394531 L281.961914,8.64404297 C280.833984,8.38769531 280.413574,7.97753906 280.413574,7.35205078 L280.413574,7.34179688 C280.413574,6.54199219 281.121094,6.01904297 282.249023,6.01904297 C283.438477,6.01904297 284.135742,6.65478516 284.248535,7.52636719 L284.258789,7.60839844 L286.637695,7.60839844 L286.627441,7.49560547 C286.535156,5.61914062 284.956055,4.13232422 282.249023,4.13232422 C279.624023,4.13232422 277.891113,5.47558594 277.891113,7.46484375 L277.891113,7.47509766 C277.891113,9.08496094 278.937012,10.1000977 281.018555,10.5615234 L282.823242,10.9614258 C283.951172,11.2177734 284.330566,11.5869141 284.330566,12.2431641 L284.330566,12.253418 C284.330566,13.0532227 283.582031,13.5556641 282.341309,13.5556641 C281.049316,13.5556641 280.341797,13.0019531 280.146973,12.0688477 L280.126465,11.9765625 L277.614258,11.9765625 L277.624512,12.0688477 C277.850098,14.0888672 279.480469,15.4423828 282.331055,15.4423828 Z" id="Path"></path>
                </g>
                <g id="Group">
                    <rect id="Rectangle" fill="url(#radialGradient-3)" x="0" y="0" width="150" height="150" rx="13"></rect>
                    <path d="M137,0 C144.179702,-1.31888981e-15 150,5.82029825 150,13 L150,137 C150,144.179702 144.179702,150 137,150 L13,150 C5.82029825,150 8.79259876e-16,144.179702 0,137 L0,13 C-8.79259876e-16,5.82029825 5.82029825,1.31888981e-15 13,0 L137,0 Z M75,13 C40.7583456,13 13,40.7583452 13,75 C13,97.1504662 24.8171332,117.618342 44,128.693575 C63.1828666,139.768808 86.8171334,139.768808 106,128.693575 C125.182867,117.618342 137,97.1504662 137,75 C137,40.7583452 109.241654,13 75,13 Z M75,25 C102.614237,25 125,47.3857623 125,75 C125,92.8632791 115.470054,109.36963 100,118.30127 C84.5299462,127.23291 65.4700538,127.23291 50,118.30127 C34.5299461,109.36963 25,92.8632791 25,75 C25,47.3857623 47.3857626,25 75,25 Z M72,46.0811081 C68.6862915,46.0811081 66,48.7673996 66,52.0811081 L66,52.0811081 L66,79.999999 L66.0040357,80.2220331 C66.1193939,83.3904666 68.6935886,85.9399813 71.8892522,85.9989768 L71.8892522,85.9989768 L98.9732617,86.498992 L99.198238,86.498992 C102.409361,86.439963 105.023213,83.8485931 105.083001,80.6107478 L105.083001,80.6107478 L105.083001,80.3857715 C105.023972,77.174648 102.432603,74.5607964 99.1947573,74.5010222 L99.1947573,74.5010222 L78,74.11 L78,52.0811081 L77.9958615,51.8561698 C77.8775718,48.646683 75.2383969,46.0811081 72,46.0811081 Z" id="Combined-Shape" fill="url(#radialGradient-4)"></path>
                </g>
            </g>
        </g>
    </g>
</svg>