<?xml version="1.0" encoding="UTF-8"?>
<svg width="150px" height="150px" viewBox="0 0 150 150" version="1.1" xmlns="http://www.w3.org/2000/svg" xmlns:xlink="http://www.w3.org/1999/xlink">
    <title>Group</title>
    <defs>
        <radialGradient cx="23.2287401%" cy="18.920732%" fx="23.2287401%" fy="18.920732%" r="109.325974%" id="radialGradient-1">
            <stop stop-color="#FFFFFF" offset="0%"></stop>
            <stop stop-color="#EEE6E7" offset="100%"></stop>
        </radialGradient>
        <radialGradient cx="2.3433057%" cy="0.861786714%" fx="2.3433057%" fy="0.861786714%" r="139.158957%" id="radialGradient-2">
            <stop stop-color="#FFB14D" offset="0%"></stop>
            <stop stop-color="#FF4F6E" offset="100%"></stop>
        </radialGradient>
    </defs>
    <g id="Page-1" stroke="none" stroke-width="1" fill="none" fill-rule="evenodd">
        <g id="Artboard-Copy-3" transform="translate(-51.000000, -130.000000)">
            <g id="Group" transform="translate(51.000000, 130.000000)">
                <rect id="Rectangle" fill="url(#radialGradient-1)" x="0" y="0" width="150" height="150" rx="75"></rect>
                <path d="M115,0 C134.329966,-3.55085719e-15 150,15.6700338 150,35 L150,115 C150,134.329966 134.329966,150 115,150 L35,150 C15.6700338,150 2.36723813e-15,134.329966 0,115 L0,35 C-2.36723813e-15,15.6700338 15.6700338,3.55085719e-15 35,0 L115,0 Z M75,13 C40.7583456,13 13,40.7583452 13,75 C13,97.1504662 24.8171332,117.618342 44,128.693575 C63.1828666,139.768808 86.8171334,139.768808 106,128.693575 C125.182867,117.618342 137,97.1504662 137,75 C137,40.7583452 109.241654,13 75,13 Z M75,25 C102.614237,25 125,47.3857623 125,75 C125,92.8632791 115.470054,109.36963 100,118.30127 C84.5299462,127.23291 65.4700538,127.23291 50,118.30127 C34.5299461,109.36963 25,92.8632791 25,75 C25,47.3857623 47.3857626,25 75,25 Z M72,46.0811081 C68.6862915,46.0811081 66,48.7673996 66,52.0811081 L66,52.0811081 L66,79.999999 L66.0040357,80.2220331 C66.1193939,83.3904666 68.6935886,85.9399813 71.8892522,85.9989768 L71.8892522,85.9989768 L98.9732617,86.498992 L99.198238,86.498992 C102.409361,86.439963 105.023213,83.8485931 105.083001,80.6107478 L105.083001,80.6107478 L105.083001,80.3857715 C105.023972,77.174648 102.432603,74.5607964 99.1947573,74.5010222 L99.1947573,74.5010222 L78,74.11 L78,52.0811081 L77.9958615,51.8561698 C77.8775718,48.646683 75.2383969,46.0811081 72,46.0811081 Z" id="Combined-Shape" fill="url(#radialGradient-2)"></path>
            </g>
        </g>
    </g>
</svg>