<?xml version="1.0" encoding="UTF-8"?>
<svg width="550px" height="82px" viewBox="0 0 550 82" version="1.1" xmlns="http://www.w3.org/2000/svg" xmlns:xlink="http://www.w3.org/1999/xlink">
    <title>sla_pause_light</title>
    <defs>
        <radialGradient cx="2.3433057%" cy="0.861786714%" fx="2.3433057%" fy="0.861786714%" r="3995.03714%" gradientTransform="translate(0.023433,0.008618),scale(0.024452,1.000000),rotate(1.421960),translate(-0.023433,-0.008618)" id="radialGradient-1">
            <stop stop-color="#FFB14D" offset="0%"></stop>
            <stop stop-color="#FF4F6E" offset="100%"></stop>
        </radialGradient>
        <radialGradient cx="2.3433057%" cy="0.861786714%" fx="2.3433057%" fy="0.861786714%" r="1689.57079%" gradientTransform="translate(0.023433,0.008618),scale(0.057899,1.000000),rotate(3.363852),translate(-0.023433,-0.008618)" id="radialGradient-2">
            <stop stop-color="#FFB14D" offset="0%"></stop>
            <stop stop-color="#FF4F6E" offset="100%"></stop>
        </radialGradient>
    </defs>
    <g id="Page-1" stroke="none" stroke-width="1" fill="none" fill-rule="evenodd">
        <g id="SLA-Explanation-Light" transform="translate(-27.000000, -40.000000)">
            <g id="sla_pause_light" transform="translate(27.000000, 41.000000)">
                <g id="Group-8" transform="translate(0.000000, 7.243297)">
                    <rect id="Rectangle-Copy" fill="#D8D8D8" x="0" y="54.0697329" width="78.5714286" height="19.1703932" rx="4.8"></rect>
                    <path d="M199,24.1159935 L356,24.1159935 L356,32.5030405 L199,32.5030405 L199,24.1159935 Z M13,24.1159935 L167,24.1159935 L167,32.5030405 L13,32.5030405 L13,24.1159935 Z" id="Combined-Shape" fill="url(#radialGradient-1)" opacity="0.490257626"></path>
                    <rect id="Rectangle-Copy-8" fill="#D8D8D8" opacity="0.335635231" x="471.428571" y="54.0697329" width="78.5714286" height="19.1703932" rx="4.8"></rect>
                    <rect id="Rectangle-Copy-7" fill="#CBCBCB" opacity="0.335635231" x="392.857143" y="54.0697329" width="78.5714286" height="19.1703932" rx="4.8"></rect>
                    <rect id="Rectangle-Copy-6" fill="#D8D8D8" x="314.285714" y="54.0697329" width="78.5714286" height="19.1703932" rx="4.8"></rect>
                    <rect id="Rectangle-Copy-5" fill="#CBCBCB" x="235.714286" y="54.0697329" width="78.5714286" height="19.1703932" rx="4.8"></rect>
                    <rect id="Rectangle-Copy-4" fill="#D8D8D8" x="157.142857" y="54.0697329" width="78.5714286" height="19.1703932" rx="4.8"></rect>
                    <rect id="Rectangle-Copy-2" fill="#CBCBCB" x="78.5714286" y="54.0697329" width="78.5714286" height="19.1703932" rx="4.8"></rect>
                    <rect id="Rectangle-Copy-13" fill="#7C3C47" x="339.468864" y="54.0697329" width="28.2051282" height="19.1703932" rx="6"></rect>
                    <rect id="Rectangle-Copy-11" fill="#66392F" x="182.326007" y="54.0697329" width="28.2051282" height="19.1703932" rx="6"></rect>
                    <path d="M345.468864,54.0697329 L356.281092,54.0697329 L356.281092,54.0697329 L356.281092,73.2401261 L345.468864,73.2401261 C342.155156,73.2401261 339.468864,70.5538346 339.468864,67.2401261 L339.468864,60.0697329 C339.468864,56.7560244 342.155156,54.0697329 345.468864,54.0697329 Z M266.897436,54.0697329 L283.102564,54.0697329 C286.416273,54.0697329 289.102564,56.7560244 289.102564,60.0697329 L289.102564,67.2401261 C289.102564,70.5538346 286.416273,73.2401261 283.102564,73.2401261 L266.897436,73.2401261 C263.583727,73.2401261 260.897436,70.5538346 260.897436,67.2401261 L260.897436,60.0697329 C260.897436,56.7560244 263.583727,54.0697329 266.897436,54.0697329 Z M199,54.0697329 L205,54.0697329 C208.313708,54.0697329 211,56.7560244 211,60.0697329 L211,67.2401261 C211,70.5538346 208.313708,73.2401261 205,73.2401261 L199,73.2401261 L199,73.2401261 L199,54.0697329 Z M109.754579,54.0697329 L125.959707,54.0697329 C129.273415,54.0697329 131.959707,56.7560244 131.959707,60.0697329 L131.959707,67.2401261 C131.959707,70.5538346 129.273415,73.2401261 125.959707,73.2401261 L109.754579,73.2401261 C106.44087,73.2401261 103.754579,70.5538346 103.754579,67.2401261 L103.754579,60.0697329 C103.754579,56.7560244 106.44087,54.0697329 109.754579,54.0697329 Z M31.1831502,54.0697329 L47.3882784,54.0697329 C50.7019869,54.0697329 53.3882784,56.7560244 53.3882784,60.0697329 L53.3882784,67.2401261 C53.3882784,70.5538346 50.7019869,73.2401261 47.3882784,73.2401261 L31.1831502,73.2401261 C27.8694417,73.2401261 25.1831502,70.5538346 25.1831502,67.2401261 L25.1831502,60.0697329 C25.1831502,56.7560244 27.8694417,54.0697329 31.1831502,54.0697329 Z" id="Combined-Shape" fill="url(#radialGradient-2)"></path>
                    <g id="Mon" transform="translate(28.523340, 41.721484)" fill="#C7C7C7" fill-rule="nonzero">
                        <polygon id="Path" points="0 6.02519531 1.32480469 6.02519531 1.32480469 2.32558594 1.35761719 2.32558594 2.80546875 6.02519531 3.66679687 6.02519531 5.11464844 2.32558594 5.14746094 2.32558594 5.14746094 6.02519531 6.47226562 6.02519531 6.47226562 0.106640625 4.73320312 0.106640625 3.2484375 3.97441406 3.22382812 3.97441406 1.7390625 0.106640625 0 0.106640625"></polygon>
                        <path d="M10.1226563,6.13183594 C11.9273438,6.13183594 13.0470703,4.9546875 13.0470703,3.06796875 L13.0470703,3.05976563 C13.0470703,1.17714844 11.9232422,0 10.1226563,0 C8.334375,0 7.20234375,1.17714844 7.20234375,3.05976563 L7.20234375,3.06796875 C7.20234375,4.9546875 8.32617188,6.13183594 10.1226563,6.13183594 Z M10.1226563,4.88496094 C9.27773438,4.88496094 8.73632813,4.19179688 8.73632813,3.06796875 L8.73632813,3.05976563 C8.73632813,1.9359375 9.28183594,1.246875 10.1226563,1.246875 C10.9716797,1.246875 11.5171875,1.94003906 11.5171875,3.05976563 L11.5171875,3.06796875 C11.5171875,4.17949219 10.9839844,4.88496094 10.1226563,4.88496094 Z" id="Shape"></path>
                        <polygon id="Path" points="13.78125 6.02519531 15.2824219 6.02519531 15.2824219 2.57167969 15.3111328 2.57167969 17.6900391 6.02519531 18.9533203 6.02519531 18.9533203 0.106640625 17.4521484 0.106640625 17.4521484 3.52324219 17.4234375 3.52324219 15.0568359 0.106640625 13.78125 0.106640625"></polygon>
                    </g>
                    <g id="Tues" transform="translate(107.434375, 41.721484)" fill="#C7C7C7" fill-rule="nonzero">
                        <polygon id="Path" points="1.63242187 6.02519531 3.13359375 6.02519531 3.13359375 1.31660156 4.76601562 1.31660156 4.76601562 0.106640625 0 0.106640625 0 1.31660156 1.63242187 1.31660156"></polygon>
                        <path d="M7.94882812,6.13183594 C9.50332031,6.13183594 10.5,5.25410156 10.5,3.92519531 L10.5,0.106640625 L8.99472656,0.106640625 L8.99472656,3.78164062 C8.99472656,4.47070312 8.62558594,4.88496094 7.95292969,4.88496094 C7.27617187,4.88496094 6.90703125,4.47070312 6.90703125,3.78164062 L6.90703125,0.106640625 L5.40175781,0.106640625 L5.40175781,3.92519531 C5.40175781,5.25820312 6.40664062,6.13183594 7.94882812,6.13183594 Z" id="Path"></path>
                        <polygon id="Path" points="11.3941406 6.02519531 15.4505859 6.02519531 15.4505859 4.81523437 12.8994141 4.81523437 12.8994141 3.61757812 15.2988281 3.61757812 15.2988281 2.48554687 12.8994141 2.48554687 12.8994141 1.31660156 15.4505859 1.31660156 15.4505859 0.106640625 11.3941406 0.106640625"></polygon>
                        <path d="M18.5800781,6.13183594 C20.146875,6.13183594 21.0738281,5.38125 21.0738281,4.2 L21.0738281,4.19589844 C21.0738281,3.2484375 20.4914062,2.73984375 19.2363281,2.49785156 L18.6292969,2.38300781 C17.9935547,2.2640625 17.7146484,2.09589844 17.7146484,1.77597656 L17.7146484,1.771875 C17.7146484,1.43144531 18.0263672,1.18125 18.5800781,1.18125 C19.1214844,1.18125 19.5029297,1.42324219 19.5480469,1.81289063 L19.5521484,1.85800781 L20.9507812,1.85800781 L20.9466797,1.771875 C20.8933594,0.697265625 20.0525391,0 18.5677734,0 C17.2101562,0 16.2216797,0.734179688 16.2216797,1.87441406 L16.2216797,1.87851563 C16.2216797,2.78496094 16.8410156,3.36328125 18.0140625,3.58066406 L18.6210937,3.69550781 C19.3142578,3.83085938 19.5767578,3.98671875 19.5767578,4.32304688 L19.5767578,4.32714844 C19.5767578,4.69628906 19.2076172,4.95058594 18.6087891,4.95058594 C18.0304687,4.95058594 17.5875,4.70039063 17.5136719,4.31894531 L17.5054687,4.27382813 L16.1068359,4.27382813 L16.1109375,4.34765625 C16.1765625,5.4796875 17.1076172,6.13183594 18.5800781,6.13183594 Z" id="Path"></path>
                    </g>
                    <g id="Wed" transform="translate(186.582813, 41.828125)" fill="#C7C7C7" fill-rule="nonzero">
                        <polygon id="Path" points="1.54628906 5.91855469 3.02695313 5.91855469 3.96210938 2.36660156 3.99082031 2.36660156 4.93007813 5.91855469 6.41074219 5.91855469 7.95703125 0 6.40253906 0 5.59863281 3.91289062 5.56992188 3.91289062 4.61015625 0 3.346875 0 2.38710938 3.91289062 2.35839844 3.91289062 1.55449219 0 0 0"></polygon>
                        <polygon id="Path" points="8.57226562 5.91855469 12.6287109 5.91855469 12.6287109 4.70859375 10.0775391 4.70859375 10.0775391 3.5109375 12.4769531 3.5109375 12.4769531 2.37890625 10.0775391 2.37890625 10.0775391 1.20996094 12.6287109 1.20996094 12.6287109 0 8.57226562 0"></polygon>
                        <path d="M13.4777344,5.91855469 L15.88125,5.91855469 C17.6654297,5.91855469 18.7195312,4.81523437 18.7195312,2.92441406 L18.7195312,2.91621094 C18.7195312,1.03359375 17.6654297,0 15.88125,0 L13.4777344,0 L13.4777344,5.91855469 Z M14.9830078,4.70449219 L14.9830078,1.2140625 L15.684375,1.2140625 C16.6318359,1.2140625 17.1896484,1.81289063 17.1896484,2.9203125 L17.1896484,2.92851562 C17.1896484,4.10976563 16.6646484,4.70449219 15.684375,4.70449219 L14.9830078,4.70449219 Z" id="Shape"></path>
                    </g>
                    <g id="Thur" transform="translate(263.710449, 41.828125)" fill="#C7C7C7" fill-rule="nonzero">
                        <polygon id="Path" points="1.63242187 5.91855469 3.13359375 5.91855469 3.13359375 1.20996094 4.76601563 1.20996094 4.76601563 0 0 0 0 1.20996094 1.63242187 1.20996094"></polygon>
                        <polygon id="Path" points="5.40175781 5.91855469 6.90703125 5.91855469 6.90703125 3.53554688 9.26542969 3.53554688 9.26542969 5.91855469 10.7666016 5.91855469 10.7666016 0 9.26542969 0 9.26542969 2.32558594 6.90703125 2.32558594 6.90703125 0 5.40175781 0"></polygon>
                        <path d="M14.2119141,6.02519531 C15.7664062,6.02519531 16.7630859,5.14746094 16.7630859,3.81855469 L16.7630859,0 L15.2578125,0 L15.2578125,3.675 C15.2578125,4.3640625 14.8886719,4.77832031 14.2160156,4.77832031 C13.5392578,4.77832031 13.1701172,4.3640625 13.1701172,3.675 L13.1701172,0 L11.6648437,0 L11.6648437,3.81855469 C11.6648437,5.1515625 12.6697266,6.02519531 14.2119141,6.02519531 Z" id="Path"></path>
                        <path d="M17.6572266,5.91855469 L19.1625,5.91855469 L19.1625,3.88007812 L19.9294922,3.88007812 L20.9466797,5.91855469 L22.6365234,5.91855469 L21.4511719,3.65449219 C22.0664062,3.38789062 22.4601563,2.73164062 22.4601563,1.97285156 L22.4601563,1.96464844 C22.4601563,0.709570312 21.6521484,0 20.2207031,0 L17.6572266,0 L17.6572266,5.91855469 Z M19.1625,2.7890625 L19.1625,1.13613281 L20.0443359,1.13613281 C20.5734375,1.13613281 20.9261719,1.46425781 20.9261719,1.96054687 L20.9261719,1.96875 C20.9261719,2.46914063 20.5857422,2.7890625 20.0525391,2.7890625 L19.1625,2.7890625 Z" id="Shape"></path>
                    </g>
                    <g id="Sat" transform="translate(424.403906, 41.721484)" fill="#C7C7C7" fill-rule="nonzero">
                        <path d="M2.47324219,6.13183594 C4.04003906,6.13183594 4.96699219,5.38125 4.96699219,4.2 L4.96699219,4.19589844 C4.96699219,3.2484375 4.38457031,2.73984375 3.12949219,2.49785156 L2.52246094,2.38300781 C1.88671875,2.2640625 1.6078125,2.09589844 1.6078125,1.77597656 L1.6078125,1.771875 C1.6078125,1.43144531 1.91953125,1.18125 2.47324219,1.18125 C3.01464844,1.18125 3.39609375,1.42324219 3.44121094,1.81289063 L3.4453125,1.85800781 L4.84394531,1.85800781 L4.83984375,1.771875 C4.78652344,0.697265625 3.94570313,0 2.4609375,0 C1.10332031,0 0.11484375,0.734179688 0.11484375,1.87441406 L0.11484375,1.87851563 C0.11484375,2.78496094 0.734179688,3.36328125 1.90722656,3.58066406 L2.51425781,3.69550781 C3.20742188,3.83085938 3.46992188,3.98671875 3.46992188,4.32304688 L3.46992188,4.32714844 C3.46992188,4.69628906 3.10078125,4.95058594 2.50195312,4.95058594 C1.92363281,4.95058594 1.48066406,4.70039063 1.40683594,4.31894531 L1.39863281,4.27382813 L0,4.27382813 L0.0041015625,4.34765625 C0.0697265625,5.4796875 1.00078125,6.13183594 2.47324219,6.13183594 Z" id="Path"></path>
                        <path d="M5.14335937,6.02519531 L6.72246094,6.02519531 L7.09160156,4.725 L9.0234375,4.725 L9.39257812,6.02519531 L10.9716797,6.02519531 L8.97832031,0.106640625 L7.13671875,0.106640625 L5.14335937,6.02519531 Z M8.04316406,1.39453125 L8.071875,1.39453125 L8.71171875,3.6421875 L7.40332031,3.6421875 L8.04316406,1.39453125 Z" id="Shape"></path>
                        <polygon id="Path" points="12.1242188 6.02519531 13.6253906 6.02519531 13.6253906 1.31660156 15.2578125 1.31660156 15.2578125 0.106640625 10.4917969 0.106640625 10.4917969 1.31660156 12.1242188 1.31660156"></polygon>
                    </g>
                    <g id="Sun" transform="translate(502.491309, 41.721484)" fill="#C7C7C7" fill-rule="nonzero">
                        <path d="M2.47324219,6.13183594 C4.04003906,6.13183594 4.96699219,5.38125 4.96699219,4.2 L4.96699219,4.19589844 C4.96699219,3.2484375 4.38457031,2.73984375 3.12949219,2.49785156 L2.52246094,2.38300781 C1.88671875,2.2640625 1.6078125,2.09589844 1.6078125,1.77597656 L1.6078125,1.771875 C1.6078125,1.43144531 1.91953125,1.18125 2.47324219,1.18125 C3.01464844,1.18125 3.39609375,1.42324219 3.44121094,1.81289063 L3.4453125,1.85800781 L4.84394531,1.85800781 L4.83984375,1.771875 C4.78652344,0.697265625 3.94570313,0 2.4609375,0 C1.10332031,0 0.11484375,0.734179688 0.11484375,1.87441406 L0.11484375,1.87851563 C0.11484375,2.78496094 0.734179688,3.36328125 1.90722656,3.58066406 L2.51425781,3.69550781 C3.20742188,3.83085938 3.46992188,3.98671875 3.46992188,4.32304688 L3.46992188,4.32714844 C3.46992188,4.69628906 3.10078125,4.95058594 2.50195312,4.95058594 C1.92363281,4.95058594 1.48066406,4.70039063 1.40683594,4.31894531 L1.39863281,4.27382813 L0,4.27382813 L0.0041015625,4.34765625 C0.0697265625,5.4796875 1.00078125,6.13183594 2.47324219,6.13183594 Z" id="Path"></path>
                        <path d="M8.20722656,6.13183594 C9.76171875,6.13183594 10.7583984,5.25410156 10.7583984,3.92519531 L10.7583984,0.106640625 L9.253125,0.106640625 L9.253125,3.78164062 C9.253125,4.47070312 8.88398438,4.88496094 8.21132813,4.88496094 C7.53457031,4.88496094 7.16542969,4.47070312 7.16542969,3.78164062 L7.16542969,0.106640625 L5.66015625,0.106640625 L5.66015625,3.92519531 C5.66015625,5.25820312 6.66503906,6.13183594 8.20722656,6.13183594 Z" id="Path"></path>
                        <polygon id="Path" points="11.6525391 6.02519531 13.1537109 6.02519531 13.1537109 2.57167969 13.1824219 2.57167969 15.5613281 6.02519531 16.8246094 6.02519531 16.8246094 0.106640625 15.3234375 0.106640625 15.3234375 3.52324219 15.2947266 3.52324219 12.928125 0.106640625 11.6525391 0.106640625"></polygon>
                    </g>
                    <path d="M356.058952,0.15300197 C358.380236,0.15300197 360.262009,2.0305064 360.262009,4.34652549 C360.262009,6.4591868 358.696186,8.20696009 356.65927,8.49759816 L356.659389,73.2401261 L355.458515,73.2401261 L355.458634,8.49759816 C353.421718,8.20696009 351.855895,6.4591868 351.855895,4.34652549 C351.855895,2.0305064 353.737668,0.15300197 356.058952,0.15300197 Z" id="Combined-Shape" fill="#FF506E" fill-rule="nonzero"></path>
                    <g id="Now" transform="translate(366.849914, 0.137109)" fill="#FF506E" fill-rule="nonzero">
                        <polygon id="Path" points="0 7.60957031 1.93007813 7.60957031 1.93007813 3.16933594 1.96699219 3.16933594 5.02558594 7.60957031 6.64980469 7.60957031 6.64980469 0 4.71972656 0 4.71972656 4.39277344 4.6828125 4.39277344 1.64003906 0 0 0"></polygon>
                        <path d="M10.4361328,7.73085937 C12.2449219,7.73085937 13.3734375,6.63925781 13.3734375,4.74082031 L13.3734375,4.73027344 C13.3734375,2.85820312 12.2238281,1.74550781 10.4361328,1.74550781 C8.65371094,1.74550781 7.49882812,2.86875 7.49882812,4.73027344 L7.49882812,4.74082031 C7.49882812,6.63398437 8.61679687,7.73085937 10.4361328,7.73085937 Z M10.4414062,6.31230469 C9.79277344,6.31230469 9.39726562,5.75332031 9.39726562,4.74082031 L9.39726562,4.73027344 C9.39726562,3.73886719 9.80332031,3.1640625 10.4361328,3.1640625 C11.0689453,3.1640625 11.4802734,3.73886719 11.4802734,4.73027344 L11.4802734,4.74082031 C11.4802734,5.74804687 11.0794922,6.31230469 10.4414062,6.31230469 Z" id="Shape"></path>
                        <polygon id="Path" points="15.1294922 7.60957031 17.1123047 7.60957031 18.0087891 3.74414062 18.0457031 3.74414062 18.9580078 7.60957031 20.9724609 7.60957031 22.4542969 1.86679687 20.6085937 1.86679687 19.8808594 5.92207031 19.8439453 5.92207031 18.9580078 1.86679687 17.1703125 1.86679687 16.2949219 5.92207031 16.2580078 5.92207031 15.525 1.86679687 13.6371094 1.86679687"></polygon>
                    </g>
                    <g id="29-Jul-2022" transform="translate(366.948828, 11.731508)" fill="#C7C7C7" fill-rule="nonzero">
                        <path d="M0.0861328125,6.02519531 L4.59785156,6.02519531 L4.59785156,4.86855469 L2.02207031,4.86855469 L2.02207031,4.81933594 L3.17871094,3.83496094 C4.15898438,2.9859375 4.52402344,2.53066406 4.52402344,1.77597656 L4.52402344,1.76777344 C4.52402344,0.717773438 3.62167969,0 2.27636719,0 C0.943359375,0 0,0.799804688 0,1.96054687 L0,1.99746094 L1.378125,1.99746094 L1.38222656,1.95234375 C1.40683594,1.4765625 1.74726563,1.13613281 2.28046875,1.13613281 C2.74394531,1.13613281 3.06796875,1.43554688 3.06796875,1.85390625 L3.06796875,1.86210937 C3.06796875,2.23125 2.92441406,2.50195312 2.18203125,3.15820312 L0.0861328125,4.99980469 L0.0861328125,6.02519531 Z" id="Path"></path>
                        <path d="M7.65761719,0 C6.29179688,0 5.2828125,0.86953125 5.2828125,2.10410156 L5.2828125,2.11230469 C5.2828125,3.21152344 6.0375,4.01132812 7.19003906,4.01132812 C7.98984375,4.01132812 8.55585938,3.62167969 8.78964844,3.05976563 L8.81835938,3.05976563 C8.81835938,3.14589844 8.81425781,3.24433594 8.81015625,3.33867187 C8.75683594,4.27792969 8.41230469,4.97519531 7.66992188,4.97519531 C7.2515625,4.97519531 6.97265625,4.76191406 6.84140625,4.47480469 L6.82910156,4.44609375 L5.35664063,4.44609375 L5.36484375,4.47890625 C5.53300781,5.42226562 6.44765625,6.13183594 7.66992188,6.13183594 C9.26132813,6.13183594 10.2498047,4.96289062 10.2498047,3.0515625 L10.2498047,3.04335937 C10.2498047,1.13613281 9.26953125,0 7.65761719,0 Z M7.66992188,2.95722656 C7.14082031,2.95722656 6.73066406,2.58808594 6.73066406,2.05488281 L6.73066406,2.04667969 C6.73066406,1.54628906 7.15722656,1.16074219 7.68222656,1.16074219 C8.21132813,1.16074219 8.62558594,1.54628906 8.62558594,2.05898437 L8.62558594,2.06308594 C8.62558594,2.58808594 8.20722656,2.95722656 7.66992188,2.95722656 Z" id="Shape"></path>
                        <path d="M14.4621094,6.13183594 C15.8443359,6.13183594 16.6359375,5.37304687 16.6359375,4.05644531 L16.6359375,0.106640625 L15.1347656,0.106640625 L15.1347656,4.04414062 C15.1347656,4.57734375 14.896875,4.85625 14.4457031,4.85625 C14.0109375,4.85625 13.7525391,4.56503906 13.7402344,4.09746094 L13.7402344,4.08515625 L12.2923828,4.08515625 L12.2923828,4.10566406 C12.3087891,5.35664062 13.1373047,6.13183594 14.4621094,6.13183594 Z" id="Path"></path>
                        <path d="M19.0189453,6.11953125 C19.6957031,6.11953125 20.1509766,5.79960937 20.3765625,5.23769531 L20.4052734,5.23769531 L20.4052734,6.02519531 L21.8572266,6.02519531 L21.8572266,1.55859375 L20.4052734,1.55859375 L20.4052734,4.09335937 C20.4052734,4.58964844 20.1140625,4.93828125 19.6546875,4.93828125 C19.1748047,4.93828125 18.9369141,4.63476562 18.9369141,4.12207031 L18.9369141,1.55859375 L17.4808594,1.55859375 L17.4808594,4.43378906 C17.4808594,5.49199219 18.0386719,6.11953125 19.0189453,6.11953125 Z" id="Path"></path>
                        <polygon id="Path" points="22.5832031 6.02519531 24.0392578 6.02519531 24.0392578 0.106640625 22.5832031 0.106640625"></polygon>
                        <path d="M26.4263672,6.02519531 L30.9380859,6.02519531 L30.9380859,4.86855469 L28.3623047,4.86855469 L28.3623047,4.81933594 L29.5189453,3.83496094 C30.4992187,2.9859375 30.8642578,2.53066406 30.8642578,1.77597656 L30.8642578,1.76777344 C30.8642578,0.717773438 29.9619141,0 28.6166016,0 C27.2835937,0 26.3402344,0.799804688 26.3402344,1.96054687 L26.3402344,1.99746094 L27.7183594,1.99746094 L27.7224609,1.95234375 C27.7470703,1.4765625 28.0875,1.13613281 28.6207031,1.13613281 C29.0841797,1.13613281 29.4082031,1.43554688 29.4082031,1.85390625 L29.4082031,1.86210937 C29.4082031,2.23125 29.2646484,2.50195312 28.5222656,3.15820312 L26.4263672,4.99980469 L26.4263672,6.02519531 Z" id="Path"></path>
                        <path d="M34.1044922,6.13183594 C35.6794922,6.13183594 36.6392578,4.9546875 36.6392578,3.06796875 L36.6392578,3.05976563 C36.6392578,1.17304687 35.6794922,0 34.1044922,0 C32.5294922,0 31.565625,1.17304687 31.565625,3.05976563 L31.565625,3.06796875 C31.565625,4.9546875 32.5294922,6.13183594 34.1044922,6.13183594 Z M34.1044922,4.9546875 C33.4523437,4.9546875 33.0873047,4.26972656 33.0873047,3.06796875 L33.0873047,3.05976563 C33.0873047,1.85800781 33.4523437,1.17714844 34.1044922,1.17714844 C34.7566406,1.17714844 35.1175781,1.85800781 35.1175781,3.05976563 L35.1175781,3.06796875 C35.1175781,4.26972656 34.7566406,4.9546875 34.1044922,4.9546875 Z" id="Shape"></path>
                        <path d="M37.3283203,6.02519531 L41.8400391,6.02519531 L41.8400391,4.86855469 L39.2642578,4.86855469 L39.2642578,4.81933594 L40.4208984,3.83496094 C41.4011719,2.9859375 41.7662109,2.53066406 41.7662109,1.77597656 L41.7662109,1.76777344 C41.7662109,0.717773438 40.8638672,0 39.5185547,0 C38.1855469,0 37.2421875,0.799804688 37.2421875,1.96054687 L37.2421875,1.99746094 L38.6203125,1.99746094 L38.6244141,1.95234375 C38.6490234,1.4765625 38.9894531,1.13613281 39.5226563,1.13613281 C39.9861328,1.13613281 40.3101563,1.43554688 40.3101563,1.85390625 L40.3101563,1.86210937 C40.3101563,2.23125 40.1666016,2.50195312 39.4242188,3.15820312 L37.3283203,4.99980469 L37.3283203,6.02519531 Z" id="Path"></path>
                        <path d="M42.5578125,6.02519531 L47.0695313,6.02519531 L47.0695313,4.86855469 L44.49375,4.86855469 L44.49375,4.81933594 L45.6503906,3.83496094 C46.6306641,2.9859375 46.9957031,2.53066406 46.9957031,1.77597656 L46.9957031,1.76777344 C46.9957031,0.717773438 46.0933594,0 44.7480469,0 C43.4150391,0 42.4716797,0.799804688 42.4716797,1.96054687 L42.4716797,1.99746094 L43.8498047,1.99746094 L43.8539063,1.95234375 C43.8785156,1.4765625 44.2189453,1.13613281 44.7521484,1.13613281 C45.215625,1.13613281 45.5396484,1.43554688 45.5396484,1.85390625 L45.5396484,1.86210937 C45.5396484,2.23125 45.3960938,2.50195312 44.6537109,3.15820312 L42.5578125,4.99980469 L42.5578125,6.02519531 Z" id="Path"></path>
                    </g>
                    <path d="M16.8122271,1.35115155 L13.2091135,7.51315155 L13.209607,73.2401261 L12.0087336,73.2401261 L12.0081135,7.51115155 L8.40611354,1.35115155 L16.8122271,1.35115155 Z" id="Combined-Shape" fill="#FFAF4F" fill-rule="nonzero"></path>
                    <g id="Created" transform="translate(23.195745, 0.000000)" fill="#FFAF4F" fill-rule="nonzero">
                        <path d="M3.70195313,7.88378906 C5.67949219,7.88378906 7.07167969,6.61289062 7.14023437,4.90957031 L7.14550781,4.8515625 L5.28398438,4.8515625 L5.2734375,4.90957031 C5.14160156,5.75859375 4.54570313,6.28066406 3.70722656,6.28066406 C2.64726563,6.28066406 1.97226563,5.40527344 1.97226563,3.93398437 L1.97226563,3.92871094 C1.97226563,2.47324219 2.64199219,1.603125 3.70195313,1.603125 C4.58789062,1.603125 5.14160156,2.16210938 5.26289063,2.953125 L5.2734375,3.03222656 L7.13496094,3.03222656 L7.13496094,2.97949219 C7.06640625,1.27617188 5.69003906,0 3.70195313,0 C1.42910156,0 0,1.45019531 0,3.93398437 L0,3.93925781 C0,6.42304687 1.41855469,7.88378906 3.70195313,7.88378906 Z" id="Path"></path>
                        <path d="M7.92597656,7.74667969 L9.79804687,7.74667969 L9.79804687,4.68808594 C9.79804687,3.88652344 10.2251953,3.44882813 11.0109375,3.44882813 C11.2324219,3.44882813 11.4486328,3.49101563 11.6068359,3.55429688 L11.6068359,1.95644531 C11.4644531,1.90898438 11.3009766,1.88261719 11.1216797,1.88261719 C10.4414062,1.88261719 9.97734375,2.28867188 9.81914062,3.01113281 L9.78222656,3.01113281 L9.78222656,2.00390625 L7.92597656,2.00390625 L7.92597656,7.74667969 Z" id="Path"></path>
                        <path d="M14.7708984,7.86796875 C16.6007812,7.86796875 17.3232422,6.7921875 17.4972656,5.99589844 L17.5130859,5.93261719 L15.8255859,5.93261719 L15.8203125,5.95898438 C15.7359375,6.19628906 15.4089844,6.5390625 14.8078125,6.5390625 C14.1275391,6.5390625 13.7056641,6.08027344 13.6845703,5.30507813 L17.5447266,5.30507813 L17.5447266,4.75664063 C17.5447266,3.01640625 16.4425781,1.88261719 14.7076172,1.88261719 C12.9621094,1.88261719 11.8546875,3.02695313 11.8546875,4.87265625 L11.8546875,4.87792969 C11.8546875,6.73417969 12.9568359,7.86796875 14.7708984,7.86796875 Z M14.7498047,3.21152344 C15.2982422,3.21152344 15.6884766,3.55957031 15.7833984,4.20292969 L13.7109375,4.20292969 C13.8058594,3.57011719 14.2013672,3.21152344 14.7498047,3.21152344 Z" id="Shape"></path>
                        <path d="M19.9916016,7.82578125 C20.7404297,7.82578125 21.3099609,7.49882813 21.6369141,6.93457031 L21.6738281,6.93457031 L21.6738281,7.74667969 L23.540625,7.74667969 L23.540625,3.82851563 C23.540625,2.66308594 22.5228516,1.88261719 20.9777344,1.88261719 C19.3798828,1.88261719 18.4253906,2.64726563 18.3357422,3.76523438 L18.3304687,3.83378906 L20.0126953,3.83378906 L20.0232422,3.78105469 C20.0865234,3.48574219 20.3818359,3.25371094 20.8828125,3.25371094 C21.4048828,3.25371094 21.6738281,3.51210938 21.6738281,3.92871094 L21.6738281,4.21347656 L20.3660156,4.29785156 C18.8841797,4.39804688 18.0509766,5.00449219 18.0509766,6.08554688 L18.0509766,6.09082031 C18.0509766,7.09277344 18.8367187,7.82578125 19.9916016,7.82578125 Z M19.8861328,5.96953125 L19.8861328,5.96425781 C19.8861328,5.62148438 20.1445312,5.40527344 20.6666016,5.37363281 L21.6738281,5.30507813 L21.6738281,5.69003906 C21.6738281,6.17519531 21.2466797,6.53378906 20.6455078,6.53378906 C20.1867187,6.53378906 19.8861328,6.328125 19.8861328,5.96953125 Z" id="Shape"></path>
                        <path d="M26.9261719,7.86796875 C27.3164062,7.86796875 27.5958984,7.83632813 27.8015625,7.79941406 L27.8015625,6.47050781 C27.6960937,6.48632813 27.6011719,6.496875 27.4535156,6.496875 C26.9947266,6.496875 26.7732422,6.31230469 26.7732422,5.81660156 L26.7732422,3.375 L27.8015625,3.375 L27.8015625,2.00390625 L26.7732422,2.00390625 L26.7732422,0.680273438 L24.9011719,0.680273438 L24.9011719,2.00390625 L24.1207031,2.00390625 L24.1207031,3.375 L24.9011719,3.375 L24.9011719,6.06972656 C24.9011719,7.36699219 25.5339844,7.86796875 26.9261719,7.86796875 Z" id="Path"></path>
                        <path d="M31.2820312,7.86796875 C33.1119141,7.86796875 33.834375,6.7921875 34.0083984,5.99589844 L34.0242187,5.93261719 L32.3367187,5.93261719 L32.3314453,5.95898438 C32.2470703,6.19628906 31.9201172,6.5390625 31.3189453,6.5390625 C30.6386719,6.5390625 30.2167969,6.08027344 30.1957031,5.30507813 L34.0558594,5.30507813 L34.0558594,4.75664063 C34.0558594,3.01640625 32.9537109,1.88261719 31.21875,1.88261719 C29.4732422,1.88261719 28.3658203,3.02695313 28.3658203,4.87265625 L28.3658203,4.87792969 C28.3658203,6.73417969 29.4679687,7.86796875 31.2820312,7.86796875 Z M31.2609375,3.21152344 C31.809375,3.21152344 32.1996094,3.55957031 32.2945312,4.20292969 L30.2220703,4.20292969 C30.3169922,3.57011719 30.7125,3.21152344 31.2609375,3.21152344 Z" id="Shape"></path>
                        <path d="M36.8929687,7.86796875 C37.7208984,7.86796875 38.3484375,7.45136719 38.6332031,6.76582031 L38.6701172,6.76582031 L38.6701172,7.74667969 L40.5369141,7.74667969 L40.5369141,0.137109375 L38.6701172,0.137109375 L38.6701172,3.02167969 L38.6332031,3.02167969 C38.3431641,2.30976563 37.715625,1.88261719 36.8929687,1.88261719 C35.4480469,1.88261719 34.6042969,2.96894531 34.6042969,4.87265625 L34.6042969,4.87792969 C34.6042969,6.76582031 35.4585937,7.86796875 36.8929687,7.86796875 Z M37.5837891,6.34921875 C36.9246094,6.34921875 36.5027344,5.78496094 36.5027344,4.87792969 L36.5027344,4.87265625 C36.5027344,3.95507813 36.9246094,3.40664063 37.5837891,3.40664063 C38.2324219,3.40664063 38.6701172,3.96035156 38.6701172,4.87265625 L38.6701172,4.87792969 C38.6701172,5.79023438 38.2376953,6.34921875 37.5837891,6.34921875 Z" id="Shape"></path>
                    </g>
                    <g id="25-Jul-2022" transform="translate(23.051367, 11.731508)" fill="#C7C7C7" fill-rule="nonzero">
                        <path d="M0.0861328125,6.02519531 L4.59785156,6.02519531 L4.59785156,4.86855469 L2.02207031,4.86855469 L2.02207031,4.81933594 L3.17871094,3.83496094 C4.15898438,2.9859375 4.52402344,2.53066406 4.52402344,1.77597656 L4.52402344,1.76777344 C4.52402344,0.717773438 3.62167969,0 2.27636719,0 C0.943359375,0 0,0.799804688 0,1.96054687 L0,1.99746094 L1.378125,1.99746094 L1.38222656,1.95234375 C1.40683594,1.4765625 1.74726563,1.13613281 2.28046875,1.13613281 C2.74394531,1.13613281 3.06796875,1.43554688 3.06796875,1.85390625 L3.06796875,1.86210937 C3.06796875,2.23125 2.92441406,2.50195312 2.18203125,3.15820312 L0.0861328125,4.99980469 L0.0861328125,6.02519531 Z" id="Path"></path>
                        <path d="M7.71503906,6.13183594 C9.13007813,6.13183594 10.0980469,5.2828125 10.0980469,4.01953125 L10.0980469,4.01132812 C10.0980469,2.90390625 9.29003906,2.10410156 8.17441406,2.10410156 C7.55917969,2.10410156 7.07519531,2.3625 6.84140625,2.76035156 L6.81269531,2.76035156 L6.93164062,1.26328125 L9.72890625,1.26328125 L9.72890625,0.106640625 L5.74628906,0.106640625 L5.49199219,3.63398437 L6.79628906,3.63398437 C6.8578125,3.51503906 6.95625,3.40429687 7.07929688,3.31816406 C7.24746094,3.19511719 7.46484375,3.12539062 7.71503906,3.12539062 C8.27695313,3.12539062 8.67890625,3.49863281 8.67890625,4.04003906 L8.67890625,4.04824219 C8.67890625,4.59375 8.28105469,4.97519531 7.71503906,4.97519531 C7.21875,4.97519531 6.86191406,4.68398437 6.76757812,4.31484375 L6.759375,4.28613281 L5.39355469,4.28613281 L5.39765625,4.35585937 C5.46328125,5.35664062 6.34101563,6.13183594 7.71503906,6.13183594 Z" id="Path"></path>
                        <path d="M14.2570312,6.13183594 C15.6392578,6.13183594 16.4308594,5.37304687 16.4308594,4.05644531 L16.4308594,0.106640625 L14.9296875,0.106640625 L14.9296875,4.04414062 C14.9296875,4.57734375 14.6917969,4.85625 14.240625,4.85625 C13.8058594,4.85625 13.5474609,4.56503906 13.5351562,4.09746094 L13.5351562,4.08515625 L12.0873047,4.08515625 L12.0873047,4.10566406 C12.1037109,5.35664062 12.9322266,6.13183594 14.2570312,6.13183594 Z" id="Path"></path>
                        <path d="M18.8138672,6.11953125 C19.490625,6.11953125 19.9458984,5.79960937 20.1714844,5.23769531 L20.2001953,5.23769531 L20.2001953,6.02519531 L21.6521484,6.02519531 L21.6521484,1.55859375 L20.2001953,1.55859375 L20.2001953,4.09335937 C20.2001953,4.58964844 19.9089844,4.93828125 19.4496094,4.93828125 C18.9697266,4.93828125 18.7318359,4.63476562 18.7318359,4.12207031 L18.7318359,1.55859375 L17.2757812,1.55859375 L17.2757812,4.43378906 C17.2757812,5.49199219 17.8335937,6.11953125 18.8138672,6.11953125 Z" id="Path"></path>
                        <polygon id="Path" points="22.378125 6.02519531 23.8341797 6.02519531 23.8341797 0.106640625 22.378125 0.106640625"></polygon>
                        <path d="M26.2212891,6.02519531 L30.7330078,6.02519531 L30.7330078,4.86855469 L28.1572266,4.86855469 L28.1572266,4.81933594 L29.3138672,3.83496094 C30.2941406,2.9859375 30.6591797,2.53066406 30.6591797,1.77597656 L30.6591797,1.76777344 C30.6591797,0.717773438 29.7568359,0 28.4115234,0 C27.0785156,0 26.1351562,0.799804688 26.1351562,1.96054687 L26.1351562,1.99746094 L27.5132812,1.99746094 L27.5173828,1.95234375 C27.5419922,1.4765625 27.8824219,1.13613281 28.415625,1.13613281 C28.8791016,1.13613281 29.203125,1.43554688 29.203125,1.85390625 L29.203125,1.86210937 C29.203125,2.23125 29.0595703,2.50195312 28.3171875,3.15820312 L26.2212891,4.99980469 L26.2212891,6.02519531 Z" id="Path"></path>
                        <path d="M33.8994141,6.13183594 C35.4744141,6.13183594 36.4341797,4.9546875 36.4341797,3.06796875 L36.4341797,3.05976562 C36.4341797,1.17304687 35.4744141,0 33.8994141,0 C32.3244141,0 31.3605469,1.17304687 31.3605469,3.05976562 L31.3605469,3.06796875 C31.3605469,4.9546875 32.3244141,6.13183594 33.8994141,6.13183594 Z M33.8994141,4.9546875 C33.2472656,4.9546875 32.8822266,4.26972656 32.8822266,3.06796875 L32.8822266,3.05976562 C32.8822266,1.85800781 33.2472656,1.17714844 33.8994141,1.17714844 C34.5515625,1.17714844 34.9125,1.85800781 34.9125,3.05976562 L34.9125,3.06796875 C34.9125,4.26972656 34.5515625,4.9546875 33.8994141,4.9546875 Z" id="Shape"></path>
                        <path d="M37.1232422,6.02519531 L41.6349609,6.02519531 L41.6349609,4.86855469 L39.0591797,4.86855469 L39.0591797,4.81933594 L40.2158203,3.83496094 C41.1960937,2.9859375 41.5611328,2.53066406 41.5611328,1.77597656 L41.5611328,1.76777344 C41.5611328,0.717773438 40.6587891,0 39.3134766,0 C37.9804688,0 37.0371094,0.799804688 37.0371094,1.96054687 L37.0371094,1.99746094 L38.4152344,1.99746094 L38.4193359,1.95234375 C38.4439453,1.4765625 38.784375,1.13613281 39.3175781,1.13613281 C39.7810547,1.13613281 40.1050781,1.43554688 40.1050781,1.85390625 L40.1050781,1.86210937 C40.1050781,2.23125 39.9615234,2.50195312 39.2191406,3.15820312 L37.1232422,4.99980469 L37.1232422,6.02519531 Z" id="Path"></path>
                        <path d="M42.3527344,6.02519531 L46.8644531,6.02519531 L46.8644531,4.86855469 L44.2886719,4.86855469 L44.2886719,4.81933594 L45.4453125,3.83496094 C46.4255859,2.9859375 46.790625,2.53066406 46.790625,1.77597656 L46.790625,1.76777344 C46.790625,0.717773438 45.8882812,0 44.5429688,0 C43.2099609,0 42.2666016,0.799804688 42.2666016,1.96054687 L42.2666016,1.99746094 L43.6447266,1.99746094 L43.6488281,1.95234375 C43.6734375,1.4765625 44.0138672,1.13613281 44.5470703,1.13613281 C45.0105469,1.13613281 45.3345703,1.43554688 45.3345703,1.85390625 L45.3345703,1.86210937 C45.3345703,2.23125 45.1910156,2.50195312 44.4486328,3.15820312 L42.3527344,4.99980469 L42.3527344,6.02519531 Z" id="Path"></path>
                    </g>
                </g>
                <rect id="Rectangle-Copy" fill="#D8D8D8" opacity="0.490257626" x="167" y="22.3592907" width="32" height="8.38704703"></rect>
                <text id="Paused" font-family="SFProDisplay-Heavy, SF Pro Display" font-size="9" font-weight="600" fill="#ACACAC">
                    <tspan x="166.666504" y="18">Paused</tspan>
                </text>
                <g id="Group" transform="translate(178.000000, 0.000000)" stroke="#ACACAC" stroke-linecap="round" stroke-linejoin="round" stroke-width="0.968">
                    <path d="M3.5,2.99999991 L3.5,5.99999991 M5.5,2.99999991 L5.5,5.99999991 M9,4.5 C9,6.10769509 8.14230487,7.59326671 6.75000002,8.3971143 C5.35769516,9.2009619 3.64230484,9.2009619 2.24999998,8.3971143 C0.857695125,7.59326671 0,6.10769509 0,4.5 C0,2.01471857 2.01471866,0 4.5,0 C6.98528134,0 9,2.01471857 9,4.5 L9,4.5 Z" id="Shape"></path>
                </g>
            </g>
        </g>
    </g>
</svg>